<svg viewBox="0 0 57 20" fill="none" xmlns="http://www.w3.org/2000/svg">
<path d="M49.5809 17.3992V19.9997H54.2791C55.2417 19.9997 56.894 19.2957 56.9515 17.3274V16.3216C56.9515 14.6406 55.5722 13.6492 54.2791 13.6492H51.9372V12.4423H56.5779V9.82743H52.124C50.9745 9.82743 49.4372 10.7757 49.4372 12.5429V13.4481C49.4372 15.2153 50.9602 16.1205 52.124 16.1205C55.3567 16.1348 51.3481 16.1205 54.3366 16.1205V17.3848M24.4087 16.767C24.4087 16.767 26.9231 16.5515 26.9231 13.3044C26.9231 10.0573 23.8771 9.75559 23.8771 9.75559H18.3887V19.9997H21.1473V17.5285L23.5323 19.9997H27.6127L24.4087 16.767ZM23.3455 14.6693H21.1473V12.3274H23.3599C23.3599 12.3274 23.9777 12.5573 23.9777 13.4912C23.9777 14.4251 23.3455 14.6693 23.3455 14.6693ZM33.7333 9.82743H30.9316C28.9345 9.82743 28.2593 11.6378 28.2593 12.4998V19.9997H31.061V18.2038H33.6902V19.9997H36.4057V12.4998C36.4057 10.3159 34.423 9.82743 33.7333 9.82743ZM33.6902 15.3015H31.0466V12.8159C31.0466 12.8159 31.0466 12.2556 31.923 12.2556H32.8856C33.6615 12.2556 33.6759 12.8159 33.6759 12.8159V15.3015H33.6902ZM37.6844 9.82743H40.6011V19.9997H37.6844V9.82743ZM44.6959 17.3705V9.82743H41.7936V19.9997H48.6182V17.3705H44.6959Z" fill="black"/>
<path d="M1.07565 20H12.4261C12.4261 20 10.2566 10.1007 17.4404 6.0921C19.0065 5.33061 23.9921 2.48581 32.1529 8.52023C32.4115 8.30472 32.6558 8.13231 32.6558 8.13231C32.6558 8.13231 25.1846 0.675487 16.8657 1.50881C12.6847 1.88237 7.5411 5.6898 4.52389 10.7185C1.50668 15.7472 1.07565 20 1.07565 20Z" fill="black"/>
<path d="M1.07565 20H12.4261C12.4261 20 10.2566 10.1007 17.4404 6.0921C19.0065 5.33061 23.9921 2.48581 32.1529 8.52023C32.4115 8.30472 32.6558 8.13231 32.6558 8.13231C32.6558 8.13231 25.1846 0.675487 16.8657 1.50881C12.6847 1.88237 7.5411 5.6898 4.52389 10.7185C1.50668 15.7472 1.07565 20 1.07565 20Z" fill="black"/>
<path d="M1.07565 20H12.4261C12.4261 20 10.2566 10.1007 17.4404 6.0921C19.0065 5.33061 23.9921 2.48581 32.1529 8.52023C32.4115 8.30472 32.6558 8.13231 32.6558 8.13231C32.6558 8.13231 25.1846 0.675487 16.8657 1.50881C12.6704 1.88237 7.52673 5.68961 4.50952 10.7183C1.49231 15.747 1.07565 20 1.07565 20ZM24.7248 2.31321L24.7823 1.35058C24.653 1.27874 24.2938 1.10633 23.3886 0.847707L23.3312 1.79597C23.8053 1.95402 24.2651 2.12643 24.7248 2.31321Z" fill="black"/>
<path d="M23.3599 5.35914L23.3024 6.2643C23.7766 6.27867 24.2507 6.33614 24.7248 6.43671L24.7823 5.54592C24.2938 5.44535 23.8197 5.38787 23.3599 5.35914ZM18.0439 0.876428H18.1875L17.9002 0C17.4548 0 16.995 0.0287353 16.5209 0.086206L16.7939 0.933898C17.2105 0.890795 17.6272 0.876428 18.0439 0.876428ZM18.7335 6.16373L19.064 7.1551C19.4806 6.95395 19.8973 6.78154 20.314 6.65223L19.9979 5.70396C19.5094 5.84764 19.0927 6.00569 18.7335 6.16373ZM12.2106 2.38503L11.564 1.39366C11.2049 1.58044 10.8313 1.78159 10.4434 2.01147L11.1043 3.01721C11.4778 2.78733 11.837 2.57181 12.2106 2.38503ZM15.156 8.85048L15.8456 9.88496C16.0899 9.52576 16.3772 9.19531 16.6933 8.86485L16.0468 7.88785C15.7163 8.18957 15.4146 8.52003 15.156 8.85048ZM13.0727 13.4769L14.2364 14.3964C14.2939 13.8361 14.3945 13.2757 14.5382 12.7154L13.5037 11.8964C13.3169 12.428 13.1876 12.9596 13.0727 13.4769ZM6.77962 6.65223L5.75951 5.76143C5.38595 6.12063 5.02676 6.47982 4.6963 6.83901L5.80261 7.78728C6.10434 7.39935 6.43479 7.01142 6.77962 6.65223ZM2.44058 13.0746L0.788299 12.4711C0.515313 13.0889 0.213592 13.8073 0.0699158 14.1953L1.7222 14.7987C1.90898 14.3102 2.2107 13.6062 2.44058 13.0746ZM12.8571 17.1263C12.8859 17.8877 12.9577 18.5056 13.0296 18.9366L14.7537 19.5544C14.6244 18.9941 14.4951 18.3619 14.4088 17.6866L12.8571 17.1263Z" fill="black"/>
</svg>
