<svg viewBox="0 0 65 16" fill="none" xmlns="http://www.w3.org/2000/svg">
<path fill-rule="evenodd" clip-rule="evenodd" d="M13.0306 12.0873C13.1718 13.8982 13.1718 14.7471 13.1718 15.6737H8.97864C8.97864 15.4719 8.98224 15.2872 8.98589 15.1C8.99725 14.518 9.00909 13.9111 8.91472 12.6854C8.78999 10.891 8.0167 10.4922 6.59483 10.4922H0V7.22743H6.79439C8.59044 7.22743 9.48845 6.68148 9.48845 5.236C9.48845 3.96496 8.59044 3.19471 6.79439 3.19471H0V0H7.54274C11.6088 0 13.6293 1.91901 13.6293 4.98444C13.6293 7.27728 12.2075 8.77261 10.2867 9.02183C11.9081 9.34582 12.8561 10.2679 13.0306 12.0873Z" fill="black"/>
<path d="M2.30249e-05 15.6737V13.2399H4.4336C5.17416 13.2399 5.33496 13.7888 5.33496 14.1161V15.6737H2.30249e-05Z" fill="black"/>
<path d="M63.721 4.58563H59.559L57.6649 7.22739L55.8207 4.58563H51.3596L55.3721 10.0436L51.0107 15.701H55.1727L57.3908 12.6854L59.6088 15.701H64.0699L59.6836 9.86919L63.721 4.58563Z" fill="black"/>
<path d="M63.721 4.58563H59.559L57.6649 7.22739L55.8207 4.58563H51.3596L55.3721 10.0436L51.0107 15.701H55.1727L57.3908 12.6854L59.6088 15.701H64.0699L59.6836 9.86919L63.721 4.58563Z" fill="black"/>
<path d="M22.3356 11.7383C21.9617 12.6106 21.2639 12.9844 20.1673 12.9844C18.9461 12.9844 17.9493 12.3364 17.8496 10.9657H25.6502V9.84422C25.6502 6.82861 23.6814 4.28654 19.968 4.28654C16.5038 4.28654 13.9119 6.80368 13.9119 10.3177C13.9119 13.8567 16.4539 16 20.0178 16C22.9586 16 25.0022 14.5794 25.5754 12.0374L22.3356 11.7383ZM17.8994 9.02176C18.0489 7.97503 18.6222 7.17752 19.9181 7.17752C21.1144 7.17752 21.7624 8.02487 21.8122 9.02176H17.8994Z" fill="black"/>
<path d="M22.3356 11.7383C21.9617 12.6106 21.2639 12.9844 20.1673 12.9844C18.9461 12.9844 17.9493 12.3364 17.8496 10.9657H25.6502V9.84422C25.6502 6.82861 23.6814 4.28654 19.968 4.28654C16.5038 4.28654 13.9119 6.80368 13.9119 10.3177C13.9119 13.8567 16.4539 16 20.0178 16C22.9586 16 25.0022 14.5794 25.5754 12.0374L22.3356 11.7383ZM17.8994 9.02176C18.0489 7.97503 18.6222 7.17752 19.9181 7.17752C21.1144 7.17752 21.7624 8.02487 21.8122 9.02176H17.8994Z" fill="black"/>
<path d="M37.5056 6.4797C37.0321 5.18374 36.0102 4.28654 34.0414 4.28654C32.3716 4.28654 31.1753 5.03421 30.5772 6.2554V4.58561H26.5398V15.7009H30.5772V10.243C30.5772 8.57317 31.0507 7.47658 32.3716 7.47658C33.5928 7.47658 33.8919 8.27409 33.8919 9.79438V15.7009H37.9293V10.243C37.9293 8.57317 38.3779 7.47658 39.7237 7.47658C40.9448 7.47658 41.219 8.27409 41.219 9.79438V15.7009H45.2564V8.72269C45.2564 6.40493 44.3592 4.28654 41.2937 4.28654C39.4246 4.28654 38.1037 5.23359 37.5056 6.4797Z" fill="black"/>
<path d="M37.5056 6.4797C37.0321 5.18374 36.0102 4.28654 34.0414 4.28654C32.3716 4.28654 31.1753 5.03421 30.5772 6.2554V4.58561H26.5398V15.7009H30.5772V10.243C30.5772 8.57317 31.0507 7.47658 32.3716 7.47658C33.5928 7.47658 33.8919 8.27409 33.8919 9.79438V15.7009H37.9293V10.243C37.9293 8.57317 38.3779 7.47658 39.7237 7.47658C40.9448 7.47658 41.219 8.27409 41.219 9.79438V15.7009H45.2564V8.72269C45.2564 6.40493 44.3592 4.28654 41.2937 4.28654C39.4246 4.28654 38.1037 5.23359 37.5056 6.4797Z" fill="black"/>
<path d="M46.5769 4.58568V15.701H50.6143V4.58568H46.5769ZM46.5519 3.53895H50.6392V0H46.5519V3.53895Z" fill="black"/>
<path d="M46.5769 4.58568V15.701H50.6143V4.58568H46.5769ZM46.5519 3.53895H50.6392V0H46.5519V3.53895Z" fill="black"/>
</svg>
